<?xml version="1.0" standalone="no"?>
<!DOCTYPE svg PUBLIC "-//W3C//DTD SVG 20010904//EN"
 "http://www.w3.org/TR/2001/REC-SVG-20010904/DTD/svg10.dtd">
<svg version="1.0" xmlns="http://www.w3.org/2000/svg"
 width="512.000000pt" height="512.000000pt" viewBox="0 0 512.000000 512.000000"
 preserveAspectRatio="xMidYMid meet">

<g transform="translate(0.000000,512.000000) scale(0.100000,-0.100000)"
fill="#000000" stroke="none">
<path d="M2170 5105 c-875 -107 -1559 -800 -1660 -1680 -5 -49 -10 -262 -10
-472 l0 -382 23 -25 c34 -38 85 -39 122 -1 l25 24 0 373 c0 382 6 485 40 645
72 348 269 683 545 927 528 467 1285 567 1915 251 535 -268 884 -774 949
-1377 7 -59 11 -380 11 -820 0 -567 3 -746 15 -830 50 -379 216 -722 482 -999
59 -60 111 -125 123 -150 37 -83 22 -176 -42 -245 -48 -52 -87 -67 -238 -94
-880 -155 -1753 -77 -2520 227 -178 70 -363 159 -456 218 -152 97 -309 237
-428 383 -38 45 -77 87 -88 93 -44 24 -118 -23 -118 -75 0 -50 133 -213 285
-348 196 -175 410 -299 745 -431 723 -285 1501 -377 2326 -277 243 30 430 67
499 99 171 79 263 284 210 467 -23 82 -45 115 -155 229 -209 218 -335 435
-410 703 -56 200 -60 262 -60 1046 0 425 -4 756 -10 817 -61 603 -394 1130
-911 1445 -356 217 -791 310 -1209 259z"/>
<path d="M1240 3497 c-40 -21 -50 -53 -50 -174 0 -133 8 -159 54 -178 39 -16
60 -12 94 18 21 19 22 28 22 157 0 129 -1 138 -22 158 -30 27 -67 35 -98 19z"/>
<path d="M2124 3496 c-42 -19 -54 -57 -54 -176 0 -121 12 -158 56 -176 38 -16
68 -8 99 26 16 18 20 39 23 123 5 135 -8 184 -53 203 -40 16 -32 16 -71 0z"/>
<path d="M1523 2880 c-102 -16 -195 -94 -226 -191 -22 -66 -22 -215 -2 -294
32 -124 124 -232 245 -289 89 -41 207 -48 308 -17 94 28 181 93 233 173 58 90
74 152 74 288 0 106 -2 119 -28 172 -33 67 -90 120 -156 144 -53 19 -357 29
-448 14z m405 -184 c45 -23 57 -59 56 -160 -1 -105 -20 -162 -76 -218 -57 -56
-102 -73 -193 -73 -69 0 -86 4 -127 27 -96 57 -138 141 -138 275 0 80 15 121
52 147 31 22 385 23 426 2z"/>
<path d="M425 2156 c-97 -31 -172 -96 -213 -184 -36 -77 -38 -211 -5 -284 32
-70 103 -141 176 -174 l62 -29 301 -3 301 -3 31 26 c41 34 44 84 7 120 l-24
25 -273 0 c-157 0 -289 5 -310 10 -127 36 -170 187 -80 284 50 53 69 56 342
56 l251 0 24 25 c34 33 34 87 0 120 l-24 25 -263 -1 c-183 0 -275 -4 -303 -13z"/>
<path d="M1762 1759 c-98 -19 -194 -97 -243 -197 -33 -66 -34 -205 -2 -274 30
-66 105 -143 172 -175 l56 -28 431 -3 430 -3 27 25 c29 27 36 78 14 107 -29
37 -47 39 -452 39 -437 0 -436 0 -492 63 -71 80 -48 206 47 261 33 20 53 21
365 24 293 3 332 5 348 20 29 26 38 57 26 92 -21 58 -36 60 -376 59 -169 -1
-327 -5 -351 -10z"/>
</g>
</svg>
