<?xml version="1.0" standalone="no"?>
<!DOCTYPE svg PUBLIC "-//W3C//DTD SVG 20010904//EN"
 "http://www.w3.org/TR/2001/REC-SVG-20010904/DTD/svg10.dtd">
<svg version="1.0" xmlns="http://www.w3.org/2000/svg"
 width="512.000000pt" height="512.000000pt" viewBox="0 0 512.000000 512.000000"
 preserveAspectRatio="xMidYMid meet">

<g transform="translate(0.000000,512.000000) scale(0.100000,-0.100000)"
fill="#000000" stroke="none">
<path d="M2183 4895 c-396 -72 -716 -368 -819 -761 -23 -86 -27 -119 -27 -254
0 -136 3 -167 26 -255 15 -55 45 -138 67 -183 22 -46 40 -88 40 -92 0 -5 -84
-88 -186 -185 l-187 -177 -71 71 c-81 80 -123 101 -198 101 -79 0 -140 -34
-225 -123 -58 -62 -75 -87 -88 -132 -30 -101 -8 -165 93 -267 l66 -68 -51 -52
c-72 -74 -87 -109 -88 -193 0 -89 23 -131 133 -238 91 -88 133 -110 212 -110
72 0 118 21 184 83 29 27 57 50 62 50 5 0 36 -28 69 -61 70 -72 121 -98 189
-99 85 0 125 18 209 100 99 94 121 134 121 220 0 82 -16 115 -102 202 l-65 67
192 200 193 200 46 -20 c250 -108 574 -97 831 27 118 56 202 116 292 206 315
319 388 806 180 1205 -179 343 -533 555 -920 552 -58 0 -138 -7 -178 -14z
m355 -161 c172 -35 316 -113 443 -239 83 -82 127 -146 179 -258 60 -129 74
-200 74 -362 0 -116 -3 -154 -22 -220 -92 -321 -332 -552 -658 -631 -47 -12
-109 -17 -194 -16 -144 0 -233 20 -361 78 -59 26 -86 33 -102 27 -31 -11 -524
-514 -536 -547 -6 -14 -8 -34 -4 -43 3 -10 48 -61 99 -113 51 -53 96 -108 99
-123 9 -34 -20 -82 -82 -137 -75 -66 -94 -60 -218 60 -131 127 -131 127 -240
20 -88 -85 -122 -105 -158 -91 -12 5 -55 43 -95 84 -95 99 -95 106 7 211 88
91 105 117 96 149 -4 12 -47 63 -95 112 -89 91 -110 120 -110 150 0 9 30 48
67 86 96 99 105 98 238 -31 85 -83 108 -100 134 -100 26 0 56 24 198 158 313
294 363 345 363 372 0 14 -16 52 -36 85 -92 151 -129 289 -128 470 1 149 21
242 79 364 113 237 354 432 595 480 30 6 64 13 75 15 52 10 223 4 293 -10z"/>
<path d="M2213 4511 c-188 -46 -348 -175 -432 -346 -48 -97 -65 -176 -64 -295
1 -185 66 -333 203 -463 129 -124 265 -177 445 -178 111 0 188 17 280 60 288
135 438 471 345 776 -33 108 -85 192 -170 276 -161 160 -388 224 -607 170z
m248 -151 c137 -25 279 -134 344 -262 164 -329 -71 -708 -440 -708 -249 0
-449 174 -486 422 -21 142 26 288 126 396 119 129 285 184 456 152z"/>
<path d="M3538 3126 c-198 -53 -239 -328 -64 -431 27 -16 81 -33 136 -43 l92
-17 -251 -243 -251 -244 -83 35 c-170 72 -261 91 -432 90 -144 -1 -225 -15
-355 -62 -333 -122 -580 -409 -652 -761 -29 -138 -22 -358 16 -485 106 -362
378 -627 746 -727 73 -19 109 -23 250 -23 149 0 175 3 263 28 361 100 624 360
733 723 21 71 27 117 31 227 8 198 -21 345 -96 496 l-28 57 252 260 c139 142
255 257 257 254 3 -3 15 -54 27 -115 25 -131 55 -186 123 -228 134 -83 309
-15 354 139 l16 57 -71 361 c-39 199 -79 381 -88 405 -20 56 -64 105 -116 130
-29 13 -156 38 -398 75 -195 31 -357 56 -360 55 -2 0 -25 -6 -51 -13z m422
-206 c277 -44 317 -52 336 -72 19 -19 34 -83 94 -381 68 -340 71 -360 55 -383
-33 -51 -100 -56 -130 -10 -8 12 -32 105 -52 205 -41 207 -53 231 -111 231
-35 0 -52 -16 -377 -346 -187 -190 -346 -359 -354 -375 -14 -28 -12 -34 36
-132 88 -175 108 -269 100 -455 -7 -152 -22 -215 -87 -347 -58 -118 -125 -204
-218 -281 -437 -362 -1089 -227 -1342 277 -72 144 -94 252 -88 427 4 120 9
148 37 232 50 148 101 230 216 345 59 59 126 115 165 138 270 156 577 164 858
21 79 -41 114 -53 132 -49 24 6 681 647 707 690 19 31 15 64 -10 89 -19 19
-50 27 -186 49 -90 15 -174 33 -187 42 -68 44 -16 154 65 139 14 -2 168 -27
341 -54z"/>
<path d="M2620 1889 c-94 -10 -145 -25 -235 -72 -307 -159 -434 -550 -280
-862 184 -373 674 -481 994 -219 156 128 241 305 241 505 0 178 -64 333 -190
459 -143 144 -328 210 -530 189z m223 -180 c200 -67 337 -255 337 -464 0 -140
-46 -251 -145 -350 -192 -192 -497 -192 -690 0 -99 98 -145 210 -145 350 0
214 142 403 355 471 66 21 215 17 288 -7z"/>
</g>
</svg>
