<svg width="300" height="54" viewBox="0 0 300 54" fill="none" xmlns="http://www.w3.org/2000/svg">
<rect x="0.5" y="0.5" width="299" height="53" rx="5.5" fill="white" stroke="#747775"/>
<path d="M128.122 19.7979V21.1058C128.122 22.4616 128.122 23.945 127.756 25.9707H129.67V27.6136H124.007V33.4834H121.965V27.6136H116.431V25.9707H125.698C126.065 24.0965 126.097 22.6769 126.097 21.4248H117.946V19.7979H128.122ZM142.255 19.5426V20.5316C142.255 21.4647 142.255 22.6291 141.983 24.0885H143.834V25.6836H130.547V24.0885H139.926C140.165 22.9082 140.213 21.9591 140.229 21.1536H132.174V19.5426H142.255ZM142.191 26.7044V30.7718H134.088V31.7926H142.59V33.3558H132.062V29.2406H140.181V28.2835H132.046V26.7044H142.191ZM161.714 30.1816V31.8564H148.427V30.1816H154.026V27.9964H149.959V23.1156H158.173V21.5205H149.943V19.8936H160.183V24.7106H152V26.3376H160.518V27.9964H156.052V30.1816H161.714ZM174.156 20.2923V22.0309C174.156 24.0247 174.156 26.0026 173.629 29.0013L171.572 28.8258C172.114 26.0345 172.114 23.9609 172.13 22.0309V21.9193H163.915V20.2923H174.156ZM175.783 29.8945V31.5693H162.544V29.8945H175.783ZM188.814 18.9684V29.4001H186.772V18.9684H188.814ZM189.197 31.5853V33.2122H179.084V28.3473H181.142V31.5853H189.197ZM180.855 19.8936C183.088 19.8936 184.827 21.4248 184.827 23.5462C184.827 25.7155 183.088 27.2308 180.855 27.2308C178.622 27.2308 176.883 25.7155 176.883 23.5462C176.883 21.4248 178.622 19.8936 180.855 19.8936ZM180.855 21.6641C179.722 21.6481 178.861 22.3659 178.877 23.5462C178.861 24.7585 179.722 25.4603 180.855 25.4603C181.955 25.4603 182.817 24.7585 182.817 23.5462C182.817 22.3659 181.955 21.6481 180.855 21.6641Z" fill="black" fill-opacity="0.85"/>
<path fill-rule="evenodd" clip-rule="evenodd" d="M82.64 27.2044C82.64 26.5663 82.5827 25.9526 82.4764 25.3635H74V28.8449H78.8436C78.635 29.9699 78.0009 30.9231 77.0477 31.5613V33.8194H79.9564C81.6582 32.2526 82.64 29.9453 82.64 27.2044Z" fill="#4285F4"/>
<path fill-rule="evenodd" clip-rule="evenodd" d="M74 36C76.43 36 78.4673 35.1941 79.9564 33.8195L77.0477 31.5613C76.2418 32.1013 75.2109 32.4204 74 32.4204C71.6559 32.4204 69.6718 30.8372 68.9641 28.71H65.9573V31.0418C67.4382 33.9831 70.4818 36 74 36Z" fill="#34A853"/>
<path fill-rule="evenodd" clip-rule="evenodd" d="M68.9641 28.7101C68.7841 28.1701 68.6818 27.5933 68.6818 27.0001C68.6818 26.4069 68.7841 25.8301 68.9641 25.2901V22.9583H65.9573C65.3477 24.1733 65 25.5478 65 27.0001C65 28.4523 65.3477 29.8269 65.9573 31.0419L68.9641 28.7101Z" fill="#FBBC05"/>
<path fill-rule="evenodd" clip-rule="evenodd" d="M74 21.5795C75.3214 21.5795 76.5077 22.0336 77.4405 22.9255L80.0218 20.3441C78.4632 18.8918 76.4259 18 74 18C70.4818 18 67.4382 20.0168 65.9573 22.9582L68.9641 25.29C69.6718 23.1627 71.6559 21.5795 74 21.5795Z" fill="#EA4335"/>
</svg>
