<svg width="33" height="33" viewBox="0 0 33 33" fill="none" xmlns="http://www.w3.org/2000/svg">
<path d="M16.8594 2.57031C9.12813 2.57031 2.85938 8.83906 2.85938 16.5703C2.85938 24.3016 9.12813 30.5703 16.8594 30.5703C24.5906 30.5703 30.8594 24.3016 30.8594 16.5703C30.8594 8.83906 24.5906 2.57031 16.8594 2.57031ZM16.8594 28.1953C10.4406 28.1953 5.23438 22.9891 5.23438 16.5703C5.23438 10.1516 10.4406 4.94531 16.8594 4.94531C23.2781 4.94531 28.4844 10.1516 28.4844 16.5703C28.4844 22.9891 23.2781 28.1953 16.8594 28.1953Z" fill="black"/>
<path d="M15.3594 11.0703C15.3594 11.4681 15.5174 11.8497 15.7987 12.131C16.08 12.4123 16.4616 12.5703 16.8594 12.5703C17.2572 12.5703 17.6387 12.4123 17.92 12.131C18.2013 11.8497 18.3594 11.4681 18.3594 11.0703C18.3594 10.6725 18.2013 10.291 17.92 10.0097C17.6387 9.72835 17.2572 9.57031 16.8594 9.57031C16.4616 9.57031 16.08 9.72835 15.7987 10.0097C15.5174 10.291 15.3594 10.6725 15.3594 11.0703ZM17.6094 14.5703H16.1094C15.9719 14.5703 15.8594 14.6828 15.8594 14.8203V23.3203C15.8594 23.4578 15.9719 23.5703 16.1094 23.5703H17.6094C17.7469 23.5703 17.8594 23.4578 17.8594 23.3203V14.8203C17.8594 14.6828 17.7469 14.5703 17.6094 14.5703Z" fill="black"/>
</svg>
