<?xml version="1.0" standalone="no"?>
<!DOCTYPE svg PUBLIC "-//W3C//DTD SVG 20010904//EN"
 "http://www.w3.org/TR/2001/REC-SVG-20010904/DTD/svg10.dtd">
<svg version="1.0" xmlns="http://www.w3.org/2000/svg"
 width="512.000000pt" height="512.000000pt" viewBox="0 0 512.000000 512.000000"
 preserveAspectRatio="xMidYMid meet">

<g transform="translate(0.000000,512.000000) scale(0.100000,-0.100000)"
fill="#000000" stroke="none">
<path d="M447 4024 c-53 -27 -102 -88 -117 -145 -7 -24 -9 -485 -8 -1341 l3
-1305 30 -49 c19 -30 49 -60 79 -79 l49 -30 2061 -3 c2276 -3 2106 -7 2175 60
18 18 42 50 54 72 l22 41 0 1315 0 1315 -21 40 c-29 54 -70 94 -119 116 -38
18 -123 19 -2100 18 l-2060 0 -48 -25z m2033 -468 l0 -334 -32 -7 c-252 -50
-433 -205 -514 -440 -25 -71 -28 -94 -29 -210 0 -143 12 -198 67 -312 87 -176
263 -306 476 -348 l32 -7 0 -334 0 -334 -979 0 -980 0 -20 26 c-20 25 -21 40
-21 215 l0 189 344 0 c332 0 344 1 370 21 l26 20 0 220 c0 200 2 220 18 225
215 72 331 231 320 439 -5 93 -41 183 -99 250 -44 50 -136 109 -194 124 l-45
11 0 224 0 225 -26 20 c-26 20 -38 21 -370 21 l-344 0 0 189 c0 175 1 190 21
215 l20 26 980 0 979 0 0 -334z m2131 315 c24 -19 24 -23 27 -215 l3 -196
-344 0 c-333 0 -345 -1 -371 -21 l-26 -20 0 -224 0 -223 -52 -17 c-117 -38
-225 -143 -265 -258 -27 -78 -24 -214 6 -290 43 -108 131 -195 246 -242 l60
-24 3 -220 2 -220 27 -20 c25 -20 38 -21 370 -21 l344 0 -3 -196 c-3 -192 -3
-196 -27 -215 -22 -18 -53 -19 -997 -19 l-974 0 0 334 0 335 55 11 c137 28
249 94 352 204 118 126 173 268 173 446 0 178 -55 320 -173 446 -103 110 -215
176 -352 204 l-55 11 0 335 0 334 974 0 c944 0 975 -1 997 -19z m-3551 -1311
l0 -740 -290 0 -290 0 0 740 0 740 290 0 290 0 0 -740z m3580 0 l0 -740 -290
0 -290 0 0 740 0 740 290 0 290 0 0 -740z m-2160 1 l0 -499 -40 9 c-56 13
-124 46 -180 88 -280 211 -262 635 35 826 47 30 114 58 160 68 11 3 21 5 23 6
1 0 2 -224 2 -498z m287 457 c345 -162 396 -631 93 -859 -56 -42 -124 -75
-180 -88 l-40 -9 0 498 0 498 40 -9 c23 -5 61 -19 87 -31z m-1475 -251 c129
-99 145 -270 35 -385 -32 -33 -76 -62 -97 -62 -7 0 -10 79 -10 240 0 270 -2
263 72 207z m2608 -207 c0 -161 -3 -240 -10 -240 -45 0 -139 95 -158 158 -36
118 8 232 118 305 50 34 50 35 50 -223z"/>
</g>
</svg>
