<svg width="300" height="54" viewBox="0 0 300 54" fill="none" xmlns="http://www.w3.org/2000/svg">
<rect width="300" height="54" rx="6" fill="#FEE500"/>
<path d="M123.007 20.3402C122.991 24.8223 121.907 28.5547 116.483 31.2663L115.367 29.735C117.791 28.5308 119.235 27.1829 120.056 25.5719L115.766 25.9707L115.51 24.2321L120.678 23.9131C120.822 23.307 120.926 22.653 120.981 21.9671H116.276V20.3402H123.007ZM126.883 18.9525V24.5192H128.941V26.194H126.883V33.4355H124.841V18.9525H126.883ZM137.123 20.3402C137.107 24.8223 136.023 28.5547 130.6 31.2663L129.483 29.735C131.908 28.5308 133.351 27.1829 134.173 25.5719L129.882 25.9707L129.627 24.2321L134.795 23.9131C134.938 23.307 135.042 22.653 135.098 21.9671H130.392V20.3402H137.123ZM140.999 18.9525V24.5192H143.057V26.194H140.999V33.4355H138.958V18.9525H140.999ZM150.283 19.7021C153.409 19.7021 155.738 21.2812 155.754 23.6738C155.738 25.859 153.895 27.3345 151.287 27.6296V30.1019H156.95V31.7767H143.663V30.1019H149.262V27.6136C146.662 27.3345 144.827 25.8511 144.827 23.6738C144.827 21.2812 147.156 19.7021 150.283 19.7021ZM150.283 21.3291C148.257 21.3291 146.837 22.2223 146.837 23.6738C146.837 25.2051 148.257 26.0664 150.283 26.0664C152.324 26.0664 153.728 25.2051 153.744 23.6738C153.728 22.2223 152.324 21.3291 150.283 21.3291ZM174.83 30.1816V31.8564H161.544V30.1816H167.142V27.9964H163.075V23.1156H171.289V21.5205H163.059V19.8936H173.299V24.7106H165.117V26.3376H173.634V27.9964H169.168V30.1816H174.83ZM187.272 20.2923V22.0309C187.272 24.0247 187.272 26.0026 186.745 29.0013L184.688 28.8258C185.23 26.0345 185.23 23.9609 185.246 22.0309V21.9193H177.032V20.2923H187.272ZM188.899 29.8945V31.5693H175.66V29.8945H188.899ZM201.93 18.9684V29.4001H199.889V18.9684H201.93ZM202.313 31.5853V33.2122H192.201V28.3473H194.258V31.5853H202.313ZM193.971 19.8936C196.204 19.8936 197.943 21.4248 197.943 23.5462C197.943 25.7155 196.204 27.2308 193.971 27.2308C191.738 27.2308 189.999 25.7155 189.999 23.5462C189.999 21.4248 191.738 19.8936 193.971 19.8936ZM193.971 21.6641C192.839 21.6481 191.977 22.3659 191.993 23.5462C191.977 24.7585 192.839 25.4603 193.971 25.4603C195.072 25.4603 195.933 24.7585 195.933 23.5462C195.933 22.3659 195.072 21.6481 193.971 21.6641Z" fill="black" fill-opacity="0.85"/>
<g clip-path="url(#clip0_590_2050)">
<path fill-rule="evenodd" clip-rule="evenodd" d="M74.8 19.6533C69.3873 19.6533 65 23.043 65 27.2236C65 29.8236 66.6969 32.1156 69.281 33.4789L68.1937 37.4507C68.0977 37.8016 68.4991 38.0813 68.8073 37.878L73.5732 34.7325C73.9754 34.7713 74.3841 34.7939 74.8 34.7939C80.2123 34.7939 84.5999 31.4044 84.5999 27.2236C84.5999 23.043 80.2123 19.6533 74.8 19.6533Z" fill="black"/>
</g>
<defs>
<clipPath id="clip0_590_2050">
<rect width="19.5999" height="19.6" fill="white" transform="translate(65 19)"/>
</clipPath>
</defs>
</svg>
