<?xml version="1.0" standalone="no"?>
<!DOCTYPE svg PUBLIC "-//W3C//DTD SVG 20010904//EN"
 "http://www.w3.org/TR/2001/REC-SVG-20010904/DTD/svg10.dtd">
<svg version="1.0" xmlns="http://www.w3.org/2000/svg"
 width="512.000000pt" height="512.000000pt" viewBox="0 0 512.000000 512.000000"
 preserveAspectRatio="xMidYMid meet">

<g transform="translate(0.000000,512.000000) scale(0.100000,-0.100000)"
fill="#000000" stroke="none">
<path d="M982 4826 c-269 -68 -442 -316 -404 -581 14 -91 61 -200 113 -260 31
-35 32 -39 15 -49 -152 -91 -239 -213 -267 -376 -6 -33 -7 -230 -3 -500 l6
-445 -42 -470 -43 -470 -106 -280 -105 -280 -1 -95 c0 -82 4 -103 26 -151 47
-99 120 -168 220 -204 l58 -20 -157 -70 c-86 -37 -181 -80 -210 -93 -56 -26
-82 -60 -82 -108 0 -34 59 -94 93 -94 14 0 186 71 383 159 198 87 618 273 934
414 316 140 816 361 1110 492 294 130 895 397 1335 592 440 195 892 395 1005
445 237 104 266 126 257 192 -7 51 -44 86 -92 86 -20 0 -91 -25 -172 -61 -76
-34 -158 -70 -182 -80 l-43 -19 21 32 c82 124 165 337 192 488 28 162 7 479
-37 547 -7 12 -31 27 -52 34 -51 15 -97 -8 -118 -56 -12 -29 -12 -43 0 -102
36 -169 28 -343 -21 -512 -94 -327 -353 -597 -677 -707 -215 -73 -480 -72
-689 3 -653 233 -915 1007 -535 1583 145 220 366 378 626 447 85 23 117 26
257 26 141 0 172 -3 259 -26 54 -15 150 -51 214 -82 63 -30 127 -55 142 -55
16 0 42 12 59 26 26 22 31 33 31 70 0 57 -18 76 -125 131 -187 96 -360 137
-580 137 -347 0 -641 -120 -885 -364 -107 -106 -181 -209 -245 -338 -36 -73
-54 -124 -101 -279 -2 -9 -11 -9 -37 2 -19 8 -117 28 -219 46 l-186 32 -103
94 c-116 105 -252 201 -323 228 -25 10 -46 20 -46 23 0 3 18 25 41 49 58 63
107 172 121 268 34 244 -117 487 -352 565 -80 27 -206 34 -278 16z m243 -215
c62 -28 130 -94 162 -160 24 -47 28 -68 28 -136 -1 -96 -22 -151 -85 -219 -64
-69 -136 -100 -235 -100 -67 0 -89 4 -136 27 -66 32 -132 99 -162 165 -29 65
-30 188 0 253 40 89 122 160 213 186 58 17 158 9 215 -16z m26 -836 c181 -38
283 -103 545 -347 28 -26 50 -32 241 -67 115 -21 220 -44 232 -50 86 -46 77
-195 -14 -238 -33 -16 -44 -16 -205 5 l-170 22 -150 75 c-86 43 -162 75 -180
75 -19 0 -42 -11 -62 -29 l-33 -29 3 -266 4 -266 -410 0 -409 0 -8 418 c-7
435 -5 474 35 551 25 51 110 126 163 144 59 21 321 22 418 2z m491 -831 c64
-32 91 -39 252 -61 197 -27 269 -26 338 4 l44 20 18 -61 c86 -295 349 -602
641 -749 78 -39 218 -85 318 -105 l90 -19 -699 -310 c-384 -171 -700 -309
-702 -308 -2 2 20 119 48 262 56 289 61 365 30 465 -29 93 -76 152 -279 346
l-181 174 0 189 c0 104 2 189 5 189 3 0 38 -16 77 -36z m-28 -671 c204 -202
225 -233 226 -322 0 -74 -97 -576 -122 -629 -54 -114 -212 -133 -297 -37 -57
65 -58 85 -16 337 22 128 35 237 31 252 -5 19 -101 101 -358 306 l-351 280
349 0 349 0 189 -187z m-730 -194 c4 -4 -17 -146 -48 -316 l-56 -310 -101
-259 c-56 -142 -108 -269 -116 -281 -36 -54 -131 -85 -196 -64 -75 25 -127 95
-127 169 0 25 37 138 105 318 l106 279 34 370 c19 204 35 374 35 378 0 6 308
-235 364 -284z m344 -275 c2 -1 -11 -90 -28 -196 -29 -170 -32 -200 -22 -256
14 -86 54 -163 112 -220 l49 -48 -292 -129 c-161 -70 -296 -130 -300 -133 -5
-2 -1 10 8 28 9 18 62 148 117 288 97 250 100 262 139 472 22 118 44 238 50
267 l10 52 77 -61 c42 -33 79 -62 80 -64z"/>
<path d="M4477 3999 c-9 -5 -24 -24 -33 -41 -34 -66 13 -143 88 -143 53 0 98
47 98 101 0 51 -45 94 -97 94 -21 0 -46 -5 -56 -11z"/>
<path d="M3517 3929 c-100 -23 -198 -102 -243 -196 -32 -64 -43 -163 -23 -199
16 -30 57 -54 93 -54 38 0 84 45 91 88 12 75 17 86 53 123 65 65 156 63 222
-6 29 -30 34 -43 38 -92 5 -71 -19 -112 -91 -159 -71 -47 -94 -72 -127 -138
-28 -55 -30 -67 -30 -170 0 -126 8 -147 64 -166 27 -9 42 -8 71 4 48 20 65 63
65 163 0 90 6 99 93 157 67 45 109 98 138 176 28 75 23 204 -11 270 -81 158
-241 237 -403 199z"/>
<path d="M3560 2709 c-98 -39 -68 -189 38 -189 103 0 133 145 38 185 -40 17
-42 17 -76 4z"/>
</g>
</svg>
