<svg width="40" height="40" viewBox="0 0 40 40" fill="none" xmlns="http://www.w3.org/2000/svg">
<g clip-path="url(#clip0_361_859)">
<path d="M39.9999 38.7953C39.8517 32.4729 33.4634 27.0329 24.6564 25.5976V22.3647C25.814 21.2518 26.6376 19.5247 27.1764 18.0518C27.9576 17.6612 28.6446 16.7906 29.0446 15.6212C29.6046 14.0024 29.3882 12.5082 28.5599 11.7882C28.6258 11.2282 28.6682 10.6565 28.5952 10.0871C28.4093 8.52706 28.7482 7.64471 29.0517 6.86824C29.3011 6.21647 29.5905 5.47765 29.3011 4.64471C28.2611 1.64941 25.2376 0 20.7882 0L20.167 0.0117647C17.0776 0.122353 16.1505 1.42353 15.5293 2.63529C15.4517 2.78118 15.3482 2.97882 15.3482 2.99059C11.3199 3.35059 11.3552 6.68235 11.3858 9.36L11.3929 10.2282C11.3929 10.7106 11.414 11.2141 11.454 11.7318C10.454 12.4376 10.2682 14.0965 11.0329 15.8188C11.4682 16.7953 12.0964 17.5341 12.7952 17.9176C13.367 19.5035 14.2658 21.3765 15.5693 22.5412V25.56C6.63286 26.9459 0.14815 32.4 -8.5017e-05 38.7953L-0.0283203 40H40.0258L39.9999 38.7953ZM2.47992 37.6471C3.40227 32.72 9.20697 28.6565 16.8846 27.7553L17.9223 27.6329V21.36L17.414 21.0071C16.4893 20.3671 15.5529 18.7788 14.8493 16.6518L14.654 15.9906L13.9623 15.8706C13.8376 15.8259 13.4729 15.5106 13.1858 14.8635C13.0093 14.4682 12.9411 14.1294 12.9223 13.8871L14.1223 14.2235L13.8964 12.4612C13.7976 11.6847 13.7458 10.9294 13.7458 10.2259L13.7387 9.33177C13.7034 6.17647 13.8587 5.48706 15.5576 5.33412C16.8399 5.22118 17.327 4.27765 17.6187 3.71294C17.9717 3.02588 18.2776 2.43529 20.254 2.36235L20.7882 2.35294C22.7387 2.35294 26.1505 2.75059 27.0682 5.36941C27.0682 5.47059 26.9458 5.78588 26.8564 6.01647C26.5152 6.89647 25.9999 8.22588 26.2587 10.3765C26.3152 10.8188 26.2423 11.3741 26.1646 11.9647L25.9552 13.8588L26.9929 13.7459C27.0117 13.9906 26.9834 14.3788 26.8164 14.8565C26.5882 15.5365 26.247 15.8871 26.2587 15.9247H25.4117L25.1434 16.7294C24.4776 18.7365 23.614 20.2518 22.7693 20.8894L22.3034 21.2424V27.6565L23.334 27.7859C30.8893 28.7294 36.607 32.7812 37.5223 37.6494L2.47992 37.6471Z" fill="black"/>
</g>
<defs>
<clipPath id="clip0_361_859">
<rect width="40" height="40" fill="white"/>
</clipPath>
</defs>
</svg>
