<svg width="300" height="54" viewBox="0 0 300 54" fill="none" xmlns="http://www.w3.org/2000/svg">
<rect width="300" height="54" rx="6" fill="#03C75A"/>
<path d="M119.34 20.1504V28.8691C120.808 28.8428 122.161 28.7373 123.664 28.4121L123.963 30.293C121.994 30.7148 120.271 30.7852 118.215 30.7852H117.09V20.1504H119.34ZM130.344 18.6211V34.6172H128.234V18.6211H130.344ZM126.916 18.9199V33.9141H124.789V25.4941H121.59V23.6836H124.789V18.9199H126.916ZM145.426 18.6211V34.6523H143.158V18.6211H145.426ZM136.742 19.7461C139.15 19.7461 140.943 21.9609 140.943 25.4414C140.943 28.957 139.15 31.1543 136.742 31.1543C134.281 31.1543 132.488 28.957 132.506 25.4414C132.488 21.9609 134.281 19.7461 136.742 19.7461ZM136.742 21.7676C135.494 21.7676 134.668 23.0684 134.668 25.4414C134.668 27.832 135.494 29.1152 136.742 29.1152C137.955 29.1152 138.781 27.832 138.781 25.4414C138.781 23.0684 137.955 21.7676 136.742 21.7676ZM161.088 18.6211V34.6523H158.873V26.0742H155.902V30.8555H148.186V19.8516H150.418V23.7363H153.705V19.8516H155.902V24.2637H158.873V18.6211H161.088ZM150.418 29.0625H153.705V25.4941H150.418V29.0625ZM181.936 30.9961V32.8418H167.293V30.9961H173.463V28.5879H168.98V23.209H178.033V21.4512H168.963V19.6582H180.248V24.9668H171.23V26.7598H180.617V28.5879H175.695V30.9961H181.936ZM195.646 20.0977V22.0137C195.646 24.2109 195.646 26.3906 195.066 29.6953L192.799 29.502C193.396 26.4258 193.396 24.1406 193.414 22.0137V21.8906H184.361V20.0977H195.646ZM197.439 30.6797V32.5254H182.85V30.6797H197.439ZM211.801 18.6387V30.1348H209.551V18.6387H211.801ZM212.223 32.543V34.3359H201.078V28.9746H203.346V32.543H212.223ZM203.029 19.6582C205.49 19.6582 207.406 21.3457 207.406 23.6836C207.406 26.0742 205.49 27.7441 203.029 27.7441C200.568 27.7441 198.652 26.0742 198.652 23.6836C198.652 21.3457 200.568 19.6582 203.029 19.6582ZM203.029 21.6094C201.781 21.5918 200.832 22.3828 200.85 23.6836C200.832 25.0195 201.781 25.793 203.029 25.793C204.242 25.793 205.191 25.0195 205.191 23.6836C205.191 22.3828 204.242 21.5918 203.029 21.6094Z" fill="white"/>
<g clip-path="url(#clip0_590_2049)">
<path d="M77.8491 27.5627L71.9169 19H67V35H72.1509V26.436L78.0831 35H83V19H77.8491V27.5627Z" fill="white"/>
</g>
<defs>
<clipPath id="clip0_590_2049">
<rect width="16" height="16" fill="white" transform="translate(67 19)"/>
</clipPath>
</defs>
</svg>
