<?xml version="1.0" standalone="no"?>
<!DOCTYPE svg PUBLIC "-//W3C//DTD SVG 20010904//EN"
 "http://www.w3.org/TR/2001/REC-SVG-20010904/DTD/svg10.dtd">
<svg version="1.0" xmlns="http://www.w3.org/2000/svg"
 width="512.000000pt" height="512.000000pt" viewBox="0 0 512.000000 512.000000"
 preserveAspectRatio="xMidYMid meet">

<g transform="translate(0.000000,512.000000) scale(0.100000,-0.100000)"
fill="#000000" stroke="none">
<path d="M2390 3711 c-358 -96 -556 -477 -433 -832 66 -193 209 -331 408 -396
67 -22 98 -26 195 -26 97 0 128 4 195 26 224 73 382 249 431 477 19 89 14 235
-12 320 -64 216 -235 378 -459 435 -81 20 -242 19 -325 -4z m275 -206 c313
-81 425 -466 204 -700 -87 -92 -185 -135 -309 -135 -260 0 -465 240 -420 491
45 250 284 406 525 344z"/>
<path d="M725 3393 c-121 -44 -205 -118 -258 -231 -30 -63 -32 -74 -32 -177 0
-104 2 -114 33 -178 133 -272 486 -329 691 -112 201 212 140 546 -125 676 -60
30 -78 34 -163 36 -73 3 -108 -1 -146 -14z m200 -204 c61 -17 120 -82 134
-148 36 -170 -90 -296 -260 -260 -156 33 -214 244 -99 359 55 55 138 73 225
49z"/>
<path d="M4130 3390 c-305 -113 -387 -490 -154 -710 211 -200 547 -136 676
127 31 64 33 74 33 178 0 103 -2 114 -32 177 -44 93 -109 160 -201 205 -68 34
-83 38 -171 40 -77 3 -107 -1 -151 -17z m211 -202 c57 -19 90 -49 115 -102 42
-91 27 -185 -40 -252 -97 -98 -275 -73 -336 46 -60 120 -10 264 106 305 48 17
110 19 155 3z"/>
<path d="M454 2340 c-174 -26 -324 -136 -400 -293 -43 -91 -56 -176 -52 -350
3 -163 9 -178 78 -198 47 -14 103 9 119 49 5 15 12 95 14 177 3 109 9 163 21
197 23 62 96 142 160 176 l51 27 382 5 c368 5 383 6 410 26 55 41 55 127 0
168 -28 20 -40 21 -380 22 -194 1 -375 -2 -403 -6z"/>
<path d="M3914 2344 c-54 -12 -90 -100 -62 -154 7 -14 29 -33 48 -42 31 -16
72 -18 395 -18 l360 0 60 -29 c73 -34 146 -110 171 -179 12 -34 18 -88 21
-197 2 -82 9 -162 14 -177 16 -40 72 -63 119 -49 69 20 75 35 78 199 2 80 -2
174 -8 211 -33 189 -174 352 -359 413 -62 21 -86 22 -441 24 -206 1 -385 0
-396 -2z"/>
<path d="M1782 2114 c-29 -7 -79 -26 -110 -41 -75 -37 -188 -150 -224 -225
-53 -108 -58 -149 -58 -446 l0 -274 29 -29 c47 -46 133 -39 163 14 9 16 14
100 18 292 l5 270 28 56 c32 66 99 132 165 162 47 22 50 22 762 22 712 0 715
0 762 -22 66 -30 133 -96 165 -162 l28 -56 5 -270 c5 -280 9 -303 50 -325 10
-5 37 -10 60 -10 33 0 48 6 71 29 l29 29 0 274 c0 297 -5 338 -58 446 -36 75
-150 191 -222 225 -120 58 -111 57 -895 56 -590 0 -730 -3 -773 -15z"/>
</g>
</svg>
