<?xml version="1.0" standalone="no"?>
<!DOCTYPE svg PUBLIC "-//W3C//DTD SVG 20010904//EN"
 "http://www.w3.org/TR/2001/REC-SVG-20010904/DTD/svg10.dtd">
<svg version="1.0" xmlns="http://www.w3.org/2000/svg"
 width="512.000000pt" height="512.000000pt" viewBox="0 0 512.000000 512.000000"
 preserveAspectRatio="xMidYMid meet">

<g transform="translate(0.000000,512.000000) scale(0.100000,-0.100000)"
fill="#000000" stroke="none">
<path d="M880 5105 c-456 -80 -801 -434 -869 -892 -15 -100 -15 -3206 0 -3306
70 -467 429 -826 896 -896 100 -15 3206 -15 3306 0 467 70 826 429 896 896 15
100 15 3206 0 3306 -70 467 -429 826 -896 896 -114 17 -3235 13 -3333 -4z
m1865 -1055 c690 -64 1259 -461 1450 -1012 44 -125 59 -223 59 -378 0 -347
-128 -637 -397 -901 -324 -317 -803 -499 -1312 -499 -114 0 -325 24 -434 50
l-84 20 -304 -155 c-293 -150 -305 -155 -299 -128 3 15 22 125 41 243 19 118
38 227 41 241 5 24 -3 33 -78 87 -375 272 -590 692 -564 1101 21 326 150 598
399 842 365 357 922 541 1482 489z"/>
</g>
</svg>
